<?xml version="1.0" encoding="utf-8"?>
<!-- Generator: Adobe Illustrator 17.1.0, SVG Export Plug-In . SVG Version: 6.00 Build 0)  -->
<!DOCTYPE svg PUBLIC "-//W3C//DTD SVG 1.1//EN" "http://www.w3.org/Graphics/SVG/1.1/DTD/svg11.dtd">
<svg version="1.1" id="Layer_1" xmlns="http://www.w3.org/2000/svg" xmlns:xlink="http://www.w3.org/1999/xlink" x="0px" y="0px"
	 viewBox="48.8 38.7 62.2 81.3" enable-background="new 48.8 38.7 62.2 81.3" xml:space="preserve">
<g id="philosophy">
	<g>
		<path fill="none" stroke="#D0D2D3" stroke-width="0.5" stroke-miterlimit="10" d="M87.5,94.9c0.5,0.5,0.5,1.5,0.2,2.5l-2.7-2.9
			C86.1,94.3,87.1,94.4,87.5,94.9 M89.7,92.9c-2.1-2.3-6.3-1.8-9.4,1l7.7,8.3C91.1,99.3,91.8,95.2,89.7,92.9L89.7,92.9z"/>
	</g>
	<g>
		<path fill="none" stroke="#D0D2D3" stroke-width="0.5" stroke-miterlimit="10" d="M73.2,94.9c0.5-0.5,1.4-0.6,2.5-0.4L73,97.4
			C72.6,96.4,72.7,95.4,73.2,94.9 M71,92.9c-2.1,2.3-1.4,6.4,1.7,9.3l7.7-8.3C77.3,91,73.1,90.6,71,92.9L71,92.9z"/>
	</g>
	<path fill="none" stroke="#D0D2D3" stroke-width="0.5" stroke-miterlimit="10" d="M73.2,76.1l-0.5,0l-0.5,0c-1.4,0-2.9,0-3.9,1
		c-0.6,0.6-0.9,1.4-0.9,2.4c0,0.8,0.7,1.5,1.5,1.5s1.5-0.7,1.5-1.5c0-0.2,0-0.3,0-0.3c0.3-0.1,1.2-0.1,1.8-0.1l0.5,0l0.5,0
		c0.6,0,1.6,0,1.7,0.1c0,0,0,0.1,0,0.3c0,0.8,0.7,1.5,1.5,1.5s1.5-0.7,1.5-1.5c0-1-0.3-1.8-0.9-2.4C76.1,76,74.6,76.1,73.2,76.1z"/>
	<path fill="none" stroke="#D0D2D3" stroke-width="0.5" stroke-miterlimit="10" d="M88.3,76.1l-0.5,0l-0.5,0c-1.4,0-2.9,0-3.9,1
		c-0.6,0.6-0.9,1.4-0.9,2.4c0,0.8,0.7,1.5,1.5,1.5s1.5-0.7,1.5-1.5c0-0.2,0-0.3,0-0.3c0.3-0.1,1.2-0.1,1.8-0.1l0.5,0l0.5,0
		c0.6,0,1.6,0,1.7,0.1c0,0,0,0.1,0,0.3c0,0.8,0.7,1.5,1.5,1.5s1.5-0.7,1.5-1.5c0-1-0.3-1.8-0.9-2.4C91.2,76,89.7,76.1,88.3,76.1z"/>
	<path fill="none" stroke="#D0D2D3" stroke-width="0.5" stroke-miterlimit="10" d="M109.3,53.4c-1.2-2-3.3-3.2-5-3.8
		c-0.3-1.2-0.7-2.4-1.4-3.6c-2.3-3.9-8.1-4.6-8.4-4.6l-1.1-0.1l-0.4,1c0,0.1-0.2,0.6-0.5,1.3c-2.5-3.5-7.8-4.1-8-4.1l-1.1-0.1
		l-0.4,1c-0.1,0.1-0.8,2-1,4.4c-1.1,0-2.3,0-3.5,0c-0.2-2.3-0.9-4.2-1-4.4l-0.4-1L76,39.5c-0.2,0-5.5,0.6-8,4.1
		c-0.2-0.8-0.4-1.3-0.5-1.3l-0.4-1L66,41.4c-0.2,0-6,0.7-8.4,4.6c-0.7,1.2-1.2,2.4-1.4,3.6c-1.8,0.7-3.9,1.8-5,3.8
		c-1.1,1.8-1.7,3.9-1.7,5.7c0,2.1,0.8,3.7,2.3,4.6c0.7,0.4,1.4,0.6,2.2,0.6c0.4,0,0.7-0.1,1.1-0.1c0,0.2,0,0.3,0,0.4l1.2,13.7
		c-0.4,1-0.6,2-0.6,3.2c0,3.4,1.8,6.8,5.1,7.1c-2.5,1-4,3.1-3.5,5c0.6,2,3.1,3,5.7,2.5c0,0,0,0,0,0.1c-2.3,1.3-3.6,3.6-2.8,5.5
		c0.8,1.9,3.3,2.6,5.8,1.9c-2,1.7-2.8,4.2-1.6,5.9c1.2,1.9,4.1,2.1,6.7,0.7c-1.6,2.4-1.5,5.4,0.3,6.7c1.5,1.2,3.8,0.8,5.6-0.8
		c0.5,1.8,1.7,3.1,3.2,3c1.5,0,2.7-1.3,3.2-3c1.8,1.5,4.1,1.9,5.6,0.8c1.8-1.3,1.9-4.3,0.3-6.7c2.5,1.5,5.4,1.2,6.7-0.7
		c1.1-1.7,0.4-4.2-1.6-5.9c2.5,0.7,5-0.1,5.8-1.9c0.8-1.9-0.4-4.2-2.8-5.5c0,0,0,0,0-0.1c2.7,0.5,5.2-0.5,5.7-2.5
		c0.6-1.9-1-4.1-3.5-5c2.4-0.3,4.3-2.3,4.9-5.3c0.3-1.8,0.2-3.7-0.3-5.5l1.2-13.1h0c0-0.1,0-0.2,0-0.4c0.3,0.1,0.7,0.1,1,0.1
		c0.8,0,1.5-0.2,2.2-0.6c1.4-0.8,2.2-2.5,2.3-4.6C111,57.3,110.4,55.2,109.3,53.4z M95.4,44.6c1.6,0.4,3.9,1.3,4.9,3
		c0.2,0.4,0.4,0.8,0.6,1.2l-1.1-0.1l-0.4,1c0,0.1-0.4,0.9-0.6,2.1c-0.9-0.4-1.8-0.7-2.8-0.9c-0.1-0.2-0.3-0.4-0.4-0.5
		C94.5,48.6,95,46,95.4,44.6z M92.8,54c0.5-0.2,1-0.2,1.5-0.3c0,0,0,0,0,0c0.2,0,0.3,0,0.5,0c1.4,0.2,2.6,0.6,3.5,1.2
		c1,0.6,1.5,1.3,1.6,1.9c0,0.1,0,0.2,0,0.3c-0.1,0.4-0.4,0.9-1,1.2c-0.8,0.5-2,0.9-3.6,0.9c-0.4,0-0.9,0-1.3-0.1
		c-0.5-0.1-0.9-0.2-1.4-0.4c-0.2-0.1-0.3-0.2-0.5-0.3c-1.1-0.7-2.1-1.8-2.8-2.6c0.4-0.3,0.8-0.6,1.3-0.9
		C91.4,54.5,92.1,54.2,92.8,54z M85.3,42.7c1.6,0.4,3.9,1.3,4.9,3c0.8,1.4,1.3,2.9,1.3,4.1c0,0.7-0.1,1.2-0.4,1.6
		c-0.1,0.2-0.2,0.3-0.4,0.4C90.5,52,90.2,52,89.9,52c-1.2-0.1-3-1.3-4.3-3.5C84.6,46.8,84.9,44.3,85.3,42.7z M77.5,50
		c0.4-0.7,0.7-1.5,0.8-2.2c1.3-0.1,2.6-0.1,3.8,0c0.2,0.8,0.4,1.5,0.8,2.2c1.1,1.8,2.5,3.2,4,4.1c-0.3,0.3-0.5,0.4-0.5,0.5l-0.8,0.8
		l0.5,1c0,0.1,0.2,0.4,0.6,0.9c-2.4-1.2-3.4-3-4.2-4.4c-0.4-0.7-0.8-1.4-1.3-1.8c-0.6-0.6-1.5-0.6-2.1,0c-0.4,0.4-0.7,0.9-1.1,1.4
		c-0.7,1.1-1.6,2.4-3.6,3.5l0.3-0.5L74,54.5c0,0-0.2-0.2-0.5-0.5C75,53.2,76.4,51.8,77.5,50z M70.2,45.7c1-1.7,3.4-2.6,4.9-3
		c0.4,1.6,0.8,4.1-0.2,5.8c-1.3,2.2-3.1,3.4-4.3,3.5c-0.3,0-0.6,0-0.8-0.1c-0.2-0.1-0.3-0.3-0.4-0.4c-0.2-0.4-0.4-0.9-0.4-1.6
		C68.9,48.5,69.4,47,70.2,45.7z M66.1,53.7C66.1,53.7,66.1,53.7,66.1,53.7c0.5,0,1.1,0.1,1.6,0.3c0.7,0.2,1.4,0.6,2,0.9
		c0.5,0.3,0.9,0.6,1.3,0.9c-0.4,0.6-1,1.3-1.7,1.9c-0.1,0-0.1,0.1-0.2,0.1c-0.8,0.7-1.8,1.2-2.8,1.4c-0.4,0.1-0.9,0.1-1.3,0.1
		c-1.5,0-2.8-0.4-3.6-0.9c-0.6-0.4-0.9-0.8-1-1.2c0-0.1,0-0.2,0-0.3c0.1-0.6,0.7-1.3,1.6-1.9c0.9-0.6,2.1-1,3.5-1.2
		C65.7,53.7,65.9,53.7,66.1,53.7z M60.2,47.5c1-1.7,3.3-2.6,4.9-3c0.4,1.4,0.8,4-0.2,5.8c-0.1,0.2-0.2,0.4-0.4,0.5
		c-1,0.2-2,0.5-2.8,0.9c-0.3-1.2-0.6-2-0.6-2.1l-0.4-1l-1.1,0.1C59.7,48.4,59.9,48,60.2,47.5z M53.2,61.1c-0.5-0.3-0.8-1-0.8-2
		c0-1.3,0.5-2.8,1.3-4.1c0.5-0.9,1.4-1.5,2.3-2c0.9-0.5,1.8-0.8,2.6-0.9c0.1,0.5,0.2,1,0.3,1.6c-0.7,0.7-1.1,1.4-1.4,2.2
		c-0.2,0.6-0.2,1.1-0.1,1.7c0.1,0.4,0.2,0.8,0.3,1.1C56.2,60.8,54.2,61.6,53.2,61.1z M58.1,62.7c0-0.1,0-0.1,0-0.2
		c0.6-0.5,1.2-1,1.7-1.6c0.3,0.2,0.6,0.4,1,0.5L60,74.4c-0.4,0.1-0.7,0.3-1.1,0.4L58,64.3C58,64.3,58,63.7,58.1,62.7z M59.4,92.9
		c-0.1-0.5,0.1-1.1,0.7-1.6l0.8,2.6C60.1,93.7,59.6,93.3,59.4,92.9z M62.4,100.7c-0.2-0.5,0-1.1,0.5-1.7l1.1,2.6
		C63.2,101.5,62.6,101.1,62.4,100.7z M66.4,108.2c-0.3-0.4-0.2-1.1,0.2-1.8l1.6,2.4C67.3,108.9,66.7,108.6,66.4,108.2z M72.8,114.9
		c-0.4-0.3-0.6-1-0.5-1.8l2.4,1.8C74,115.2,73.3,115.3,72.8,114.9z M80.3,117.2c-0.4,0-0.9-0.4-1.2-0.9h2.4
		C81.2,116.9,80.8,117.2,80.3,117.2z M87.8,114.9c-0.4,0.3-1.1,0.3-1.9-0.1l2.4-1.8C88.4,113.9,88.3,114.6,87.8,114.9z M94.3,108.2
		c-0.3,0.4-0.9,0.7-1.8,0.6l1.6-2.4C94.5,107.1,94.6,107.8,94.3,108.2z M97.8,98.9c0.5,0.6,0.7,1.3,0.5,1.7
		c-0.2,0.5-0.8,0.8-1.6,0.9L97.8,98.9z M100.5,91.2c0.6,0.5,0.8,1.2,0.7,1.6c-0.1,0.5-0.7,0.9-1.5,1L100.5,91.2z M101.7,82.5
		c-0.2,1.1-0.8,3-2.6,3c-0.3,0-0.5,0.1-0.7,0.2c0,0-0.1,0-0.1,0c-0.6,0-1.1,0.5-1.1,1.1c0,8.4-6.6,19.2-12.1,24L84,106l-1.5-7h-2.2
		H78l-1.5,7l-1.1,4.7c-1.8-1.6-3.7-3.8-5.5-6.5c-4-6-6.4-12.5-6.4-17.5c0-0.6-0.5-1.1-1.1-1.1c-0.1,0-0.2,0-0.2,0
		c-0.2-0.1-0.5-0.2-0.7-0.2c-2.2,0-2.7-2.7-2.7-4.2c0-1.2,0.3-2.3,0.8-3.1c0.5-0.7,1.1-1.1,1.9-1.1c0.8,0,1.4-0.6,1.5-1.4l0.8-13.6
		c0.4,0,0.8,0.1,1.3,0.1c0.6,0,1.1,0,1.7-0.1c1.6-0.2,3-1,4.2-1.9c5.8-1.2,8-3.8,9.3-5.7c1.4,2.3,3.9,6.2,11.1,6.7
		c0.8,0.4,1.6,0.7,2.5,0.8c0.6,0.1,1.1,0.1,1.7,0.1c0.5,0,0.9,0,1.3-0.1l0.8,11.4c0,0.6,0.4,1.1,0.9,1.3c1.3,0.5,2.2,1.7,2.7,3.1
		l0,0.2c0,0.4,0.1,0.9,0.4,1.2C101.9,80.4,101.9,81.5,101.7,82.5z M101.7,73.3c-0.4-0.3-0.8-0.6-1.2-0.8l-0.8-11.1
		c0.3-0.1,0.6-0.3,0.9-0.5c0.5,0.6,1.1,1.2,1.7,1.7c0,0,0,0,0,0c0.1,0.9,0.1,1.5,0.1,1.6L101.7,73.3z M107.2,61.1
		c-0.9,0.6-2.9-0.3-4.5-2.4c0.2-0.4,0.3-0.7,0.3-1.1c0.1-0.6,0-1.2-0.1-1.7c-0.2-0.8-0.7-1.6-1.4-2.2c0.1-0.6,0.2-1.2,0.3-1.6
		c0.8,0.2,1.7,0.5,2.6,0.9c0.9,0.5,1.8,1.1,2.3,2c0.8,1.4,1.3,2.9,1.3,4.1C108,60,107.7,60.8,107.2,61.1z"/>
</g>
</svg>
