<?xml version="1.0" encoding="utf-8"?>
<!-- Generator: Adobe Illustrator 17.1.0, SVG Export Plug-In . SVG Version: 6.00 Build 0)  -->
<!DOCTYPE svg PUBLIC "-//W3C//DTD SVG 1.1//EN" "http://www.w3.org/Graphics/SVG/1.1/DTD/svg11.dtd">
<svg version="1.1" id="Layer_1" xmlns="http://www.w3.org/2000/svg" xmlns:xlink="http://www.w3.org/1999/xlink" x="0px" y="0px"
	 viewBox="48.2 39.3 64 80.7" enable-background="new 48.2 39.3 64 80.7" xml:space="preserve">
<g id="case_studies">
	<path fill="none" stroke="#D0D2D3" stroke-width="0.5" stroke-miterlimit="10" d="M110.9,110.7L88.8,83V72h1.6c1,0,1.8-0.8,1.8-1.8
		c0-1-0.8-1.8-1.8-1.8H87H73.5h-3.4c-1,0-1.8,0.8-1.8,1.8c0,1,0.8,1.8,1.8,1.8h1.6V83l-22.1,27.7c-0.3,0.3-0.4,0.7-0.4,1.1
		c0,4.1,3.3,7.5,7.5,7.5h47.3c4.2,0,7.5-3.3,7.5-7.5C111.3,111.4,111.2,111,110.9,110.7z M74.9,84.8c0.3-0.3,0.4-0.7,0.4-1.1V72h9.9
		v11.7c0,0.4,0.1,0.8,0.4,1.1L94,95.4H66.4L74.9,84.8z M103.9,115.7H56.6c-1.9,0-3.5-1.4-3.8-3.2L63.5,99h33.4l10.7,13.4
		C107.4,114.3,105.8,115.7,103.9,115.7z"/>
	<path fill="none" stroke="#D0D2D3" stroke-width="0.5" stroke-miterlimit="10" d="M62.7,62.8c-2.9,0-5.2-2.3-5.2-5.2
		c0-2.9,2.3-5.2,5.2-5.2c2.9,0,5.2,2.3,5.2,5.2C67.8,60.5,65.5,62.8,62.7,62.8z M62.7,56c-0.9,0-1.6,0.7-1.6,1.6
		c0,0.9,0.7,1.6,1.6,1.6c0.9,0,1.6-0.7,1.6-1.6S63.5,56,62.7,56z"/>
	<path fill="none" stroke="#D0D2D3" stroke-width="0.5" stroke-miterlimit="10" d="M92.1,51.8c-3.2,0-5.9-2.6-5.9-5.9
		c0-3.2,2.6-5.9,5.9-5.9c3.2,0,5.9,2.6,5.9,5.9C97.9,49.2,95.3,51.8,92.1,51.8z M92.1,43.7c-1.2,0-2.2,1-2.2,2.2
		c0,1.2,1,2.2,2.2,2.2c1.2,0,2.2-1,2.2-2.2C94.3,44.7,93.3,43.7,92.1,43.7z"/>
	<path fill="none" stroke="#D0D2D3" stroke-width="0.5" stroke-miterlimit="10" d="M96.5,68.6c-2.9,0-5.2-2.3-5.2-5.2
		c0-2.9,2.3-5.2,5.2-5.2c2.9,0,5.2,2.3,5.2,5.2C101.7,66.3,99.4,68.6,96.5,68.6z M96.5,61.8c-0.9,0-1.6,0.7-1.6,1.6s0.7,1.6,1.6,1.6
		c0.9,0,1.6-0.7,1.6-1.6S97.4,61.8,96.5,61.8z"/>
	<path fill="none" stroke="#D0D2D3" stroke-width="0.5" stroke-miterlimit="10" d="M81.4,65.2c-4.1,0-7.5-3.3-7.5-7.5
		c0-4.1,3.3-7.5,7.5-7.5c4.1,0,7.5,3.3,7.5,7.5C88.8,61.9,85.5,65.2,81.4,65.2z M81.4,53.9c-2.1,0-3.8,1.7-3.8,3.8s1.7,3.8,3.8,3.8
		c2.1,0,3.8-1.7,3.8-3.8C85.2,55.7,83.5,53.9,81.4,53.9z"/>
</g>
</svg>
