<?xml version="1.0" encoding="utf-8"?>
<!-- Generator: Adobe Illustrator 17.1.0, SVG Export Plug-In . SVG Version: 6.00 Build 0)  -->
<!DOCTYPE svg PUBLIC "-//W3C//DTD SVG 1.1//EN" "http://www.w3.org/Graphics/SVG/1.1/DTD/svg11.dtd">
<svg version="1.1" id="Layer_1" xmlns="http://www.w3.org/2000/svg" xmlns:xlink="http://www.w3.org/1999/xlink" x="0px" y="0px"
	 viewBox="15.4 39.1 129.8 81.8" enable-background="new 15.4 39.1 129.8 81.8" xml:space="preserve">
<g id="bios">
	<path fill="none" stroke="#D0D2D3" stroke-width="0.5" stroke-miterlimit="10" d="M135.3,98.5l-8.7-3.3c0-0.1,0-0.2,0-0.3
		c0-0.7,0-1.5,0-1.7c0.3-2.9-0.6-5.1-2.9-6.7c1.4-2.2,2.1-5.8,2-7.9c-0.1-1.3-0.4-2.4-1-3.5c1.4-3.3,2.2-6.9,2.2-10.8
		c0-13.5-9.4-24.4-20.9-24.4S84.9,50.9,84.9,64.4c0,4.2,0.9,8.2,2.6,11.7l-0.1,0c0,0.2-0.2,0.9-0.4,1.5c-0.3,1-0.3,1.3-0.4,1.5
		c-0.4,3.6,0.4,6.3,2.2,8.1c-1.4,2.2-2.1,5.6-2,7.8l-6.3,2.3c-4.6-2.5-10-5.1-15-7.1v-6.6c1.7-1.3,4.3-4.4,4.6-11.4
		c2-1.3,3.1-4.2,3.1-7c0-1.6-0.4-2.9-1-4c-0.3-0.5-0.7-1-1.2-1.3c1-2.4,2.6-6.6,1.5-11.1c-1.6-6.5-9.8-8.8-16.4-8.8
		c-5.9,0-13.1,1.8-15.7,6.9c-2.1-0.1-3.8,0.5-4.8,1.8c-2.4,2.9-0.4,7.8,1,11.2c-0.5,0.4-1,0.8-1.3,1.4c-0.7,1.1-1.1,2.5-1.1,4.1
		c0,2.8,1.1,5.7,3.1,6.9c0.4,7.1,3.1,10.2,4.9,11.4v6.6C36.6,92.6,16,101.6,16,106.7V118c0,1.2,1,2.2,2.2,2.2h52.6h18.8h54.8v-9.7
		C144.4,105.1,140.9,100.5,135.3,98.5z M120.7,88.3c2.4,1.2,3.2,2.4,2.9,4.6c0,0.2,0,0.5,0,1.2l-5.4-2v-7.9c1.7-1.5,3.2-3.2,4.5-5.2
		c0.2,2.3-1,6.1-2.1,6.8l-2.3,1.4L120.7,88.3z M89.4,64.4c0-0.1,0-0.3,0-0.4c1.7,0.5,3.4,0.8,5.2,0.8c5.1,0,10.6-2.3,13.9-5.6
		c3,4,6.5,5.9,11,5.9c0.9,0,1.8-0.1,2.8-0.2c-0.2,10.8-7.5,19.5-16.5,19.5C96.8,84.4,89.4,75.4,89.4,64.4z M105.9,44.4
		c8,0,14.6,6.9,16.1,16c-5.1,0.9-8.3-0.8-11.4-6.1l-2-3.5l-1.9,3.6c-1.6,3.1-7.4,5.9-12.1,5.9c-1.7,0-3.3-0.3-4.7-0.8
		C91.7,50.9,98.2,44.4,105.9,44.4z M91.8,85.6c-1.8-0.9-2.5-2.9-2.2-5.9c1.5,2.1,3.3,4,5.3,5.4V92l-5.1,1.9c0.2-2.2,1.2-5.1,2.1-5.7
		l2.3-1.4L91.8,85.6z M39.1,51.5c0,0,0.5-0.3,2.4,0c1.2,0.2,2.3-0.5,2.6-1.6c0.9-3.6,6.7-5.4,12.1-5.4s11.2,1.9,12.1,5.4
		c0.9,3.5-0.6,6.9-1.5,8.9c-0.2,0.5-0.4,0.8-0.5,1.2H54.3h-0.7h-12c-0.1-0.4-0.4-0.9-0.7-1.6C38.7,53.2,38.8,51.8,39.1,51.5z
		 M65.4,62.9c-0.3,3-1.6,3-4.4,3c-2.8,0-4.1,0-4.4-3H65.4z M51.3,62.9c-0.3,3-1.6,3-4.4,3s-4.1,0-4.4-3H51.3z M140,115.8H89.6H70.8
		H20.5v-8.6c1.7-2.2,13.6-9.1,24.9-13.4c0.9-0.3,1.4-1.2,1.4-2.1v-9.4c0-1-0.6-1.8-1.5-2.1c0,0-3.5-1.4-3.5-9.6
		c0-1.2-0.9-2.1-2.1-2.2c-0.6-0.5-1.3-2.7-0.8-4.3c0.2-0.7,0.5-0.7,0.7-0.7c0,0,0,0,0,0c0.7,5.4,4.3,5.5,7.3,5.5c2.7,0,6,0,7-4.1
		c1.1,4.1,4.3,4.1,7,4.1c3,0,6.6,0,7.3-5.4c0.1,0,0.3,0.2,0.4,0.7c0.5,1.6-0.3,3.9-0.8,4.4c-1.2,0.1-2.1,1-2.1,2.2
		c0,8.1-3.1,9.6-3.1,9.6c0,0,0,0,0,0c-0.9,0.3-1.5,1.2-1.5,2.1v9.4c0,0.9,0.6,1.7,1.4,2.1c5.4,2.2,11.7,5.1,16.8,8
		c0.6,0.3,1.2,0.4,1.9,0.1l16.8-6.2c0.9-0.3,1.5-1.2,1.5-2.1v-6c2.1,0.8,4.2,1.2,6.5,1.2c2.8,0,5.4-0.6,7.8-1.8v8.1l20,7.6
		c3.9,1.4,6.3,4.4,6.3,7.8V115.8z"/>
	<path fill="none" stroke="#D0D2D3" stroke-width="0.5" stroke-miterlimit="10" d="M114.9,73.2c0-0.8-0.7-1.5-1.5-1.5h-15
		c-0.8,0-1.5,0.7-1.5,1.5c0,4.9,4,8.8,9,8.8C110.8,82,114.9,78.1,114.9,73.2z M100,74.7h5.1V79C102.7,78.7,100.7,76.9,100,74.7z
		 M106.6,79v-4.3h5.1C111,76.9,109,78.7,106.6,79z"/>
</g>
</svg>
