<?xml version="1.0" encoding="utf-8"?>
<!-- Generator: Adobe Illustrator 16.0.4, SVG Export Plug-In . SVG Version: 6.00 Build 0)  -->
<!DOCTYPE svg PUBLIC "-//W3C//DTD SVG 1.1//EN" "http://www.w3.org/Graphics/SVG/1.1/DTD/svg11.dtd">
<svg version="1.1" id="Layer_1" xmlns="http://www.w3.org/2000/svg" xmlns:xlink="http://www.w3.org/1999/xlink" x="0px" y="0px"
	 width="300px" height="300px" viewBox="0 0 300 300" enable-background="new 0 0 300 300" xml:space="preserve">
<path display="none" fill="#6800EB" stroke="#6800EB" stroke-width="0.5" stroke-miterlimit="10" d="M205.158,177.896
	c0.337-0.006,46.41,38.246,44.302,44.5c-2.137,6.34-8.83,9.16-17.606,11.112c-8.338,1.854-21.453,2.802-30.154,3.101
	c-9.062,0.31-22.141,0.006-28.6-2.33c-4.449-1.606-9.438-4.41-11.85-7.731c-2.413-3.321-4.448-8.373-5.657-12.483
	c-1.471-4.998-3.804-13.33-1.459-18.599c3.241-7.276,15.775-11.427,23.683-13.594C186.834,179.398,197.307,178.059,205.158,177.896
	c-1.02-1.705-3.541-3.885-4.833-5.539c-5.208,0.17-8.777,0.888-13.75,1.856c-14.397,2.81-30.035,9.155-34.191,10.927
	c-5.707,2.43-10.503,2.074-14.479,2.104c-3.976-0.024-8.54,0.139-14.25-2.286c-4.159-1.764-19.804-8.092-34.207-10.882
	c-16.999-3.293-37.612-0.884-46.447,0.172c-7.292,0.872-18.165,4.812-24.532,5.563c-6.368,0.754-13.039-0.721-13.21,1.188
	c-0.665,4.29-2.378,23.049-0.79,23.378c7.069,1.317,8.79,5.704,11.129,12.877c1.918,5.886,6.525,11.675,10.162,14.802
	c3.344,2.873,8.67,5.791,19.674,7.735c11.995,2.127,37.676,3.271,50.093,1.761c11.251-1.367,17.766-4.488,21.533-8.916
	c4.165-4.896,8.913-13.044,11.449-23.626c2.208-9.212,6.108-9.663,9.448-9.641c3.341,0.013,7.387,0.618,9.606,9.825
	c2.55,10.58,7.309,18.722,11.479,23.611c3.772,4.422,10.291,7.53,21.544,8.885c12.42,1.492,38.092,0.318,50.085-1.821
	c11.001-1.957,16.323-4.882,19.663-7.759c1.229-1.06,2.566-2.428,3.875-3.995c-0.965-1.886-2.861-3.837-4.747-5.722
	c1.886,1.885,3.782,3.836,4.747,5.722 M120.482,213.891c-1.204,4.109-3.233,9.164-5.641,12.487
	c-2.408,3.325-7.393,6.136-11.838,7.749c-6.458,2.344-19.535,2.663-28.6,2.365c-8.707-0.287-21.823-1.217-30.162-3.061
	c-8.78-1.942-15.479-4.756-17.624-11.092c-2.115-6.252-2.602-15.605-1.931-20.851s0.11-16.701,11.424-19.81
	c11.314-3.106,28.658-3.947,33.748-3.914c7.953,0.053,18.951,1.389,28.359,3.957c7.91,2.157,20.45,6.291,23.699,13.564
	C124.268,200.553,121.946,208.889,120.482,213.891z"/>
<polygon display="none" fill="#6800EB" points="280.844,263.318 66.057,48.453 83.415,48.453 297.829,263.318 "/>
<path display="none" fill="none" stroke="#6800EB" stroke-width="3" stroke-miterlimit="10" d="M137.121,90.917"/>
<path display="none" fill="none" stroke="#6800EB" stroke-width="3" stroke-miterlimit="10" d="M147.206,95.929"/>
<g display="none">
	<g display="inline">
		<defs>
			<polygon id="SVGID_1_" points="289.909,255.494 75.495,40.627 381.139,33.625 414.22,256.945 			"/>
		</defs>
		<clipPath id="SVGID_2_">
			<use xlink:href="#SVGID_1_"  overflow="visible"/>
		</clipPath>
		<g clip-path="url(#SVGID_2_)">
			<g>
				<path fill="#6800EB" d="M182.492,86.173c2.99,0.7,5.678,1.254,8.027,1.665C188.466,86.82,185.807,86.236,182.492,86.173z"/>
				<path fill="#6800EB" d="M129.2,83.092c-0.039,0.038-0.073,0.082-0.11,0.121c1.457-0.439,2.955-0.843,4.482-1.203
					C132.065,81.691,130.389,81.902,129.2,83.092z"/>
				<path fill="#6800EB" d="M217.411,86.171c-3.138,0.052-5.683,0.578-7.692,1.488c2.34-0.379,4.965-0.869,7.854-1.487
					C217.52,86.173,217.467,86.17,217.411,86.171z"/>
				<path fill="#6800EB" d="M265.951,81.694c1.443,0.316,2.867,0.666,4.262,1.051C268.514,81.438,267.087,81.312,265.951,81.694z"/>
				<path fill="#6800EB" d="M231.43,112.504l-0.604-17.919C231.329,97.326,231.413,108.704,231.43,112.504z"/>
				<path fill="#6800EB" d="M230.795,94.425c0.012,0.046,0.021,0.106,0.029,0.16c0.228-1.623,1.93-11.229,10.34-11.411
					c4.311-0.093,6.184,2.231,6.977,4.815l-0.058-1.237c0,0-0.745-5.131,8.638-4.813c3.875,0.131,5.45,1.674,6.108,3.385
					l-0.033-0.559c0,0,1.095-2.375,3.155-3.071c-10.945-2.395-22.812-2.791-28.03-0.949c-7.721,2.438-14.555,4.188-20.348,5.428
					C224.729,86.098,229.611,88.979,230.795,94.425z"/>
				<path fill="#6800EB" d="M288.104,93.629c-1.992-4.85-9.312-8.515-17.891-10.884c0.141,0.108,0.283,0.222,0.428,0.347
					c3.959,3.419,3.102,14.554,3.102,15.15c0,0.596-2.744,4.294-5.131,4.772c-2.385,0.477-4.305-0.276-4.782-0.992l-0.021-0.34
					c0.021,0.755,0.031,1.247,0.031,1.332c0,0.477-4.414,4.652-8.111,5.01c-3.658,0.354-6.145,0.551-6.668-0.793
					c0.017,0.856,0.025,1.433,0.025,1.588c0,0.835-5.885,4.812-11.253,5.05c-5.081,0.226-5.832-0.298-6.403-1.366
					c0.002,0.779,0.002,1.247,0.002,1.247s-5.806,5.13-14.634,5.249c-4.176,0.057-10.14-0.159-13.36-2.545
					c0,0.12-0.438-18.212,0.873-22.746c0.772-2.665,2.541-4.751,5.408-6.05c-4.705,0.762-8.268,1.087-10.451,1.119
					c-1.982,0.029-4.936-0.273-8.748-0.94c2.638,1.308,4.273,3.329,5.01,5.871c1.312,4.533,0.876,22.865,0.876,22.746
					c-3.222,2.386-9.187,2.602-13.361,2.545c-8.828-0.119-14.635-5.249-14.635-5.249s-0.001-16.197,0.626-19.268l-0.641,18.276
					c-0.598,1.193-1.021,1.35-6.389,1.112c-5.367-0.239-11.253-4.215-11.253-5.05c0-0.191,0.015-1.021,0.039-2.221
					c-0.524,1.356-3.023,1.779-6.681,1.425c-3.698-0.358-8.111-4.533-8.111-5.01c0-0.203,0.064-2.688,0.157-5.651l-0.396,5.054
					c-0.477,0.716-2.147,1.074-4.533,0.597c-2.386-0.478-5.13-4.175-5.13-4.772c0-0.59-0.582-11.226,2.992-15.029
					c-7.869,2.373-14.406,5.875-16.272,10.416c-1.272,4.374,13.52,21.394,46.366,34.596c4.514,1.818,28.109,10.759,41.116,10.577
					c12.091,0.081,24.261-3.658,41.438-10.577C274.584,115.022,289.376,98.003,288.104,93.629z"/>
				<path fill="#6800EB" d="M137.137,84.844l-0.017,0.217c0.717-1.603,2.322-2.999,5.999-3.123c9.384-0.318,8.749,5.885,8.749,5.885
					l-0.024,0.43c1.068-2.777,3.479-5.416,7.963-5.319c8.256,0.179,9.135,9.635,9.229,11.548c0.004-0.018,0.006-0.041,0.01-0.058
					c1.193-5.488,6.139-8.374,13.385-8.254c0.021,0,0.043,0.002,0.063,0.002c-5.496-1.286-12.022-3.07-19.491-5.429
					c-5.439-1.92-18.112-1.41-29.429,1.265C135.467,82.409,137.093,83.647,137.137,84.844z"/>
				<path fill="#6800EB" d="M151.15,91.562c-0.092,2.669-0.278,10.987-0.358,15.038l1.051-18.345
					C151.402,89.394,151.186,90.555,151.15,91.562z"/>
				<path fill="#6800EB" d="M136.596,87.147c-0.137,1.305-0.314,6.2-0.439,10.216l0.963-12.302
					C136.814,85.747,136.667,86.469,136.596,87.147z"/>
				<path fill="#6800EB" d="M230.824,94.584c-0.021,0.15-0.029,0.238-0.029,0.238L230.824,94.584z"/>
				<path fill="#6800EB" d="M248.141,87.989l0.92,19.243c-0.07-3.745-0.273-12.854-0.371-15.67
					C248.65,90.46,248.514,89.197,248.141,87.989z"/>
				<path fill="#6800EB" d="M262.829,85.323l0.979,16.359c-0.092-3.482-0.369-12.672-0.564-14.535
					C263.182,86.555,263.061,85.929,262.829,85.323z"/>
			</g>
			<path fill="none" stroke="#6800EB" stroke-width="6" stroke-miterlimit="10" d="M201.334,174.354
				c2.744,0,9.747-0.598,18.135-1.91c21.913-3.428,34.068-13.881,40.561-22.666c8.113-10.976,9.307-15.747,17.418-30.301
				c7.287-13.075,13.123-16.701,14.395-27.04c-7.953-10.975-18.607-21.791-32.924-30.698c-14.314-8.908-27.837-12.566-35.152-11.93
				c-8.934,0.777-18.115,11.93-23.465,11.93c-5.348,0-14.209-11.153-23.145-11.93c-7.315-0.636-20.836,3.022-35.15,11.93
				c-14.315,8.907-24.971,19.723-32.925,30.698c1.271,10.339,7.105,13.965,14.394,27.04c8.112,14.554,9.305,19.325,17.417,30.301
				c6.494,8.785,18.647,19.238,40.56,22.666C189.841,173.756,198.591,174.354,201.334,174.354z"/>
			<g>
				<path fill="none" stroke="#6800EB" stroke-width="3" stroke-miterlimit="10" d="M169.034,94.482
					c-0.627,3.071-0.626,19.268-0.626,19.268s5.807,5.13,14.635,5.249c4.175,0.057,10.141-0.159,13.361-2.545
					c0,0.12,0.436-18.212-0.877-22.746c-1.312-4.533-5.485-7.412-13.101-7.538c-7.245-0.12-12.19,2.766-13.384,8.254
					C169.04,94.441,169.038,94.465,169.034,94.482"/>
				<path fill="none" stroke="#6800EB" stroke-width="3" stroke-miterlimit="10" d="M169.046,94.822c0,0-0.002-0.125-0.012-0.34"/>
				<path fill="none" stroke="#6800EB" stroke-width="3" stroke-miterlimit="10" d="M150.792,106.599
					c0.08-4.05,0.267-12.369,0.358-15.038c0.119-3.459,2.33-8.764,8.654-8.627c8.256,0.179,9.135,9.635,9.229,11.548"/>
				<path fill="none" stroke="#6800EB" stroke-width="3" stroke-miterlimit="10" d="M150.792,106.599
					c-0.024,1.2-0.039,2.03-0.039,2.221c0,0.835,5.886,4.812,11.253,5.05c5.368,0.238,5.791,0.082,6.389-1.112"/>
				<path fill="none" stroke="#6800EB" stroke-width="3" stroke-miterlimit="10" d="M151.867,87.824c0,0,0.636-6.203-8.749-5.885
					c-5.248,0.177-6.284,2.942-6.522,5.209c-0.238,2.267-0.596,15.389-0.596,15.867c0,0.477,4.414,4.652,8.111,5.01
					c3.657,0.354,6.156-0.069,6.681-1.425"/>
				<path fill="none" stroke="#6800EB" stroke-width="3" stroke-miterlimit="10" d="M150.792,106.599
					c0.006-0.016,0.019-0.028,0.024-0.043"/>
				<path fill="none" stroke="#6800EB" stroke-width="3" stroke-miterlimit="10" d="M137.137,84.844
					c-0.079-2.147-5.252-4.437-7.937-1.752c-3.698,3.698-3.102,14.554-3.102,15.15c0,0.596,2.744,4.294,5.13,4.772
					c2.386,0.477,4.056,0.119,4.533-0.597"/>
				<path fill="none" stroke="#6800EB" stroke-width="3" stroke-miterlimit="10" d="M230.824,94.584
					c0.505,2.741,0.589,14.12,0.604,17.919"/>
				<path fill="none" stroke="#6800EB" stroke-width="3" stroke-miterlimit="10" d="M230.824,94.584
					c-0.01-0.053-0.02-0.113-0.029-0.16c-1.193-5.488-6.139-8.374-13.384-8.254c-7.612,0.126-11.788,3.005-13.101,7.538
					s-0.875,22.865-0.875,22.746c3.223,2.386,9.187,2.602,13.361,2.545c8.828-0.119,14.633-5.249,14.633-5.249s0-0.467-0.002-1.247"
					/>
				<path fill="none" stroke="#6800EB" stroke-width="3" stroke-miterlimit="10" d="M230.824,94.584
					c0.228-1.623,1.93-11.229,10.34-11.411c6.322-0.137,7.404,4.929,7.523,8.388c0.099,2.815,0.301,11.925,0.371,15.67"/>
				<path fill="none" stroke="#6800EB" stroke-width="3" stroke-miterlimit="10" d="M230.824,94.584
					c-0.021,0.15-0.029,0.238-0.029,0.238"/>
				<path fill="none" stroke="#6800EB" stroke-width="3" stroke-miterlimit="10" d="M231.331,112.319
					c0.032,0.064,0.063,0.125,0.099,0.185"/>
				<path fill="none" stroke="#6800EB" stroke-width="3" stroke-miterlimit="10" d="M249.061,107.231
					c0.017,0.856,0.025,1.433,0.025,1.588c0,0.835-5.885,4.812-11.253,5.05c-5.081,0.226-5.833-0.298-6.403-1.366"/>
				<path fill="none" stroke="#6800EB" stroke-width="3" stroke-miterlimit="10" d="M249.061,107.231
					c0.523,1.344,3.01,1.146,6.668,0.793c3.697-0.358,8.111-4.533,8.111-5.01c0-0.478-0.357-13.6-0.597-15.867
					s-1.275-5.032-6.522-5.209c-9.383-0.318-8.638,4.813-8.638,4.813"/>
				<path fill="none" stroke="#6800EB" stroke-width="3" stroke-miterlimit="10" d="M249.035,107.192
					c0.006,0.015,0.02,0.024,0.023,0.04"/>
				<path fill="none" stroke="#6800EB" stroke-width="3" stroke-miterlimit="10" d="M263.828,102.022
					c0.479,0.716,2.396,1.469,4.783,0.992c2.386-0.478,5.13-4.175,5.13-4.772c0-0.597,0.856-11.731-3.103-15.15
					c-5.062-4.372-7.845,1.673-7.845,1.673"/>
			</g>
			<path fill="none" stroke="#6800EB" stroke-width="6" stroke-miterlimit="10" d="M199.268,88.778
				c5.446-0.08,19.33-1.932,38.653-8.034c10.14-3.579,45.41,1.273,50.183,12.884c1.272,4.374-13.52,21.394-46.365,34.596
				c-17.178,6.919-29.348,10.658-41.438,10.577c-13.007,0.182-36.604-8.759-41.115-10.577
				c-32.848-13.202-47.64-30.222-46.367-34.596c4.772-11.611,40.044-16.463,50.184-12.884
				C181.134,86.471,193.818,88.858,199.268,88.778z"/>
		</g>
	</g>
</g>
<polygon fill="none" stroke="#D0D2D3" stroke-width="0.5" stroke-miterlimit="10" points="280.823,263.635 66.383,49.112 
	83.713,49.112 297.782,263.635 "/>
<g>
	<defs>
		<polygon id="SVGID_3_" points="280.823,263.635 66.383,49.112 -55.789,50.697 -9.418,255.241 		"/>
	</defs>
	<clipPath id="SVGID_4_">
		<use xlink:href="#SVGID_3_"  overflow="visible"/>
	</clipPath>
	<path clip-path="url(#SVGID_4_)" fill="none" stroke="#D0D2D3" stroke-width="0.5" stroke-miterlimit="10" d="M205.26,178.353
		c0.337-0.009,46.335,38.184,44.23,44.427c-2.131,6.329-8.814,9.146-17.579,11.095c-8.324,1.854-21.418,2.797-30.104,3.096
		c-9.05,0.309-22.104,0.006-28.555-2.326c-4.441-1.604-9.422-4.403-11.829-7.72c-2.409-3.316-4.441-8.359-5.648-12.463
		c-1.468-4.992-3.798-13.311-1.455-18.569c3.234-7.266,15.749-11.407,23.643-13.571C186.967,179.85,197.421,178.514,205.26,178.353
		c-1.016-1.703-3.533-3.879-4.825-5.531c-5.199,0.169-8.762,0.886-13.728,1.854c-14.374,2.804-29.987,9.14-34.136,10.907
		c-5.697,2.429-10.486,2.071-14.456,2.103c-3.97-0.025-8.526,0.139-14.227-2.281c-4.152-1.763-19.827-7.812-34.151-10.865
		c-20.349-4.338-32.616-2.552-46.373,0.172c-7.193,1.422-18.136,4.803-24.493,5.557c-6.357,0.752-13.018-0.723-13.188,1.184
		c-0.663,4.283-2.375,23.011-0.789,23.339c7.058,1.316,8.775,5.696,11.111,12.856c1.916,5.875,6.514,11.657,10.146,14.778
		c3.339,2.87,8.656,5.781,19.643,7.723c11.975,2.124,37.615,3.265,50.012,1.758c11.232-1.364,17.736-4.481,21.498-8.9
		c4.158-4.89,8.898-13.024,11.431-23.589c2.204-9.198,6.097-9.648,9.433-9.625c3.335,0.013,7.374,0.618,9.59,9.811
		c2.547,10.561,7.299,18.69,11.461,23.572c3.767,4.416,10.273,7.519,21.51,8.872c12.398,1.488,38.029,0.317,50.004-1.82
		c10.982-1.954,16.297-4.873,19.631-7.745c1.226-1.057,2.562-2.424,3.869-3.989c-0.965-1.883-2.857-3.831-4.74-5.712
		c1.883,1.881,3.775,3.829,4.74,5.712 M120.721,214.285c-1.202,4.105-3.228,9.15-5.632,12.469c-2.404,3.32-7.381,6.126-11.819,7.736
		c-6.447,2.34-19.503,2.659-28.553,2.362c-8.693-0.286-21.789-1.216-30.113-3.057c-8.766-1.938-15.454-4.747-17.596-11.072
		c-2.112-6.242-2.598-15.582-1.928-20.817c0.67-5.236,0.098-16.724,11.406-19.776c19.921-5.378,28.853-4.698,33.975-4.663
		c7.94,0.052,18.639,2.142,28.031,4.706c7.897,2.154,20.417,6.28,23.661,13.542C124.5,200.97,122.183,209.293,120.721,214.285z"/>
</g>
<g>
	<defs>
		<polygon id="SVGID_5_" points="289.875,255.823 75.806,41.3 380.958,34.308 413.985,257.272 		"/>
	</defs>
	<clipPath id="SVGID_6_">
		<use xlink:href="#SVGID_5_"  overflow="visible"/>
	</clipPath>
	<g clip-path="url(#SVGID_6_)">
		<path fill="none" stroke="#D0D2D3" stroke-width="0.5" stroke-miterlimit="10" d="M201.441,177.67
			c-2.751,0-11.53-0.569-20.292-1.937c-23.171-3.627-35.82-14.921-42.351-23.757c-5.51-7.458-7.928-12.166-11.274-18.682
			c-1.692-3.295-3.611-7.03-6.315-11.881c-2.529-4.538-4.876-7.902-6.948-10.871c-3.833-5.492-6.859-9.829-7.762-17.168
			l-0.137-1.116l0.659-0.91c9.147-12.622,20.478-23.186,33.676-31.398c12.305-7.656,25.676-12.413,34.897-12.413
			c0.68,0,1.339,0.028,1.955,0.081c5.68,0.493,10.879,4.273,15.467,7.606c2.769,2.013,5.908,4.293,7.392,4.293
			c1.503,0,4.861-2.391,7.561-4.313c4.668-3.325,9.956-7.093,15.618-7.585c0.618-0.053,1.275-0.081,1.956-0.081
			c9.222,0,22.594,4.756,34.896,12.413c13.2,8.213,24.53,18.777,33.678,31.398l0.659,0.91l-0.137,1.116
			c-0.902,7.339-3.93,11.676-7.763,17.168c-2.07,2.969-4.421,6.333-6.948,10.871c-2.704,4.851-4.622,8.586-6.313,11.881
			c-3.347,6.517-5.765,11.224-11.274,18.682c-6.531,8.836-19.181,20.13-42.351,23.757
			C211.472,177.065,204.403,177.67,201.441,177.67z M112.332,93.773c0.88,5.276,3.207,8.61,6.618,13.498
			c2.148,3.08,4.584,6.569,7.254,11.359c2.751,4.936,4.693,8.717,6.406,12.053c3.343,6.511,5.552,10.812,10.785,17.892
			c5.896,7.979,17.383,18.185,38.64,21.51c8.346,1.305,16.892,1.869,19.406,1.869c2.294,0,8.891-0.498,17.666-1.869
			c21.255-3.325,32.742-13.53,38.638-21.51c5.232-7.08,7.441-11.38,10.786-17.892c1.713-3.336,3.652-7.117,6.403-12.053
			c2.671-4.79,5.107-8.28,7.256-11.359c3.411-4.888,5.737-8.221,6.618-13.498c-8.59-11.61-19.146-21.353-31.388-28.969
			c-13.699-8.525-25.732-11.55-31.877-11.55c-0.516,0-1.007,0.02-1.46,0.059c-4.109,0.357-8.726,3.646-12.798,6.546
			c-4.05,2.884-7.548,5.375-10.877,5.375c-3.342,0-6.776-2.496-10.753-5.385c-3.986-2.896-8.503-6.18-12.601-6.536
			c-0.453-0.04-0.944-0.059-1.46-0.059c-6.142,0-18.177,3.024-31.877,11.55C131.477,72.42,120.922,82.163,112.332,93.773z"/>
		<g>
			<path fill="none" stroke="#D0D2D3" stroke-width="0.5" stroke-miterlimit="10" d="M196.334,92.109
				c0.292,0.602,0.516,1.204,0.686,1.789c0.834,2.879,1.604,22.687,0.644,23.965l-0.126,0.166l-0.167,0.124
				c-2.604,1.929-6.782,2.828-13.146,2.828l0,0c-0.365,0-0.721-0.003-1.062-0.007c-9.237-0.125-14.962-4.032-15.215-4.254
				l-0.805-0.774l-0.001-1.641c-0.088-4.017,0.017-16.405,0.651-19.523c0.727-3.335,2.646-5.871,5.538-7.47 M177.966,88.582
				c-3.245,0.671-6.428,2.422-7.363,6.732c-0.475,2.322-0.592,13.402-0.602,18.303c1.51,1.135,6.439,4.408,13.197,4.5
				c0.332,0.004,0.675,0.007,1.026,0.007c5.088,0,8.744-0.639,10.886-1.898c0.087-4.084,0.194-17.968-0.837-21.532
				c-0.341-1.177-0.896-2.195-1.664-3.055"/>
			<path fill="none" stroke="#D0D2D3" stroke-width="0.5" stroke-miterlimit="10" d="M167.471,85.605
				c1.003,1.138,1.866,2.644,2.394,4.632c-1.938,2.304-2.099,4.9-2.099,4.9c-0.452-9.29-6.098-10.133-7.817-10.17
				c-6.805-0.133-7.171,6.933-7.181,7.233c-0.092,2.689-0.278,11.062-0.357,14.992"/>
			<path fill="none" stroke="#D0D2D3" stroke-width="0.5" stroke-miterlimit="10" d="M149.552,107.136
				c0.079-3.939,0.267-12.331,0.36-15.034c0.104-3.039,1.648-7.146,5.368-9.007"/>
			<path fill="none" stroke="#D0D2D3" stroke-width="0.5" stroke-miterlimit="10" d="M167.143,115.946
				c-0.486,0.099-2.708,0.08-5.029-0.094c-5.054-0.378-12.6-4.095-12.6-6.469c0-0.193,0.015-1.032,0.038-2.246"/>
			<path fill="none" stroke="#D0D2D3" stroke-width="0.5" stroke-miterlimit="10" d="M152.41,107.193
				c-0.017,0.787-0.026,1.412-0.032,1.797c1.022,1.002,5.644,3.658,9.863,4.005c2.193,0.181,4.901-0.065,4.901-0.065l0,0"/>
			<path fill="none" stroke="#D0D2D3" stroke-width="0.5" stroke-miterlimit="10" d="M150.647,83.132
				c0.952,0.284,1.667,1.326,1.934,1.906"/>
			<path fill="none" stroke="#D0D2D3" stroke-width="0.5" stroke-miterlimit="10" d="M149.588,109.808
				c-0.824,0.22-1.822,0.329-3.002,0.329c-0.735,0-1.538-0.042-2.41-0.127c-3.686-0.356-9.392-4.574-9.392-6.425
				c0-0.571,0.355-13.627,0.603-15.99c0.105-0.997,0.338-1.878,0.699-2.646"/>
			<path fill="none" stroke="#D0D2D3" stroke-width="0.5" stroke-miterlimit="10" d="M150.647,88.373
				c-0.055,0.281,0.084-1.542-1.024-2.7c-1.159-1.212-3.319-1.801-6.255-1.701c-4.167,0.141-4.933,1.969-5.137,3.922
				c-0.21,1.974-0.526,12.991-0.581,15.291c0.887,1.015,4.219,3.73,6.8,3.979c3.959,0.384,5.049-0.21,5.125-0.406"/>
			<path fill="none" stroke="#D0D2D3" stroke-width="0.5" stroke-miterlimit="10" d="M129.134,86.839
				c-1.059,2.572-1.539,6.644-1.384,11.698l0.001,0.053c0.434,0.873,2.516,3.301,3.978,3.594c2.017,0.403,2.971,0.058,3.116-0.057
				l2.32,1.655c-0.632,0.948-1.956,1.448-3.705,1.448c-0.701,0-1.47-0.08-2.291-0.245c-2.924-0.584-6.271-4.74-6.271-6.165
				l-0.005-0.196c-0.086-2.813-0.011-7.014,0.883-10.596"/>
			<path fill="none" stroke="#D0D2D3" stroke-width="0.5" stroke-miterlimit="10" d="M227.113,87.433
				c2.663,1.566,4.442,4.019,5.152,7.39"/>
			<path fill="none" stroke="#D0D2D3" stroke-width="0.5" stroke-miterlimit="10" d="M232.918,113.055l0.002,1.894l-0.482,0.427
				c-0.254,0.223-6.3,5.474-15.538,5.599c-0.348,0.004-0.709,0.007-1.08,0.007c-4.28,0-9.832-0.388-13.129-2.829l-0.083-0.065
				c-0.572-0.494-0.66-0.57-0.549-10.762c0.074-6.914,0.405-11.431,0.982-13.427c0.192-0.662,0.452-1.346,0.805-2.027"/>
			<path fill="none" stroke="#D0D2D3" stroke-width="0.5" stroke-miterlimit="10" d="M207.607,91.468
				c-0.847,0.894-1.456,1.969-1.82,3.225c-1.03,3.562-0.924,17.447-0.837,21.532c3.408,2.006,9.749,1.921,11.912,1.892
				c6.79-0.092,11.692-3.357,13.197-4.496l-0.001-0.603"/>
			<path fill="none" stroke="#D0D2D3" stroke-width="0.5" stroke-miterlimit="10" d="M230.059,113.017
				c-0.028-7.125-0.15-15.112-0.585-17.595l0,0c-0.91-4.178-4.098-6.013-7.273-6.761"/>
			<path fill="none" stroke="#D0D2D3" stroke-width="0.5" stroke-miterlimit="10" d="M232.266,94.823
				c0.514,2.794,0.635,13.708,0.652,18.231"/>
			<path fill="none" stroke="#D0D2D3" stroke-width="0.5" stroke-miterlimit="10" d="M230.536,90.784
				c0.712-1.89,1.747-3.694,3.141-5.145"/>
			<path fill="none" stroke="#D0D2D3" stroke-width="0.5" stroke-miterlimit="10" d="M247.662,107.768
				c-0.075-3.844-0.274-12.779-0.368-15.567c-0.222-6.384-3.577-7.058-6.055-6.996c-7.174,0.156-8.922,7.245-9.155,8.915"/>
			<path fill="none" stroke="#D0D2D3" stroke-width="0.5" stroke-miterlimit="10" d="M245.445,83.141
				c2.916,1.36,4.548,4.428,4.705,8.961c0.096,2.806,0.296,11.782,0.367,15.622"/>
			<path fill="none" stroke="#D0D2D3" stroke-width="0.5" stroke-miterlimit="10" d="M250.518,107.724
				c0.018,0.87,0.029,1.5,0.029,1.659c0,2.375-7.539,6.244-12.602,6.469c-0.798,0.035-1.512,0.056-2.15,0.056
				c-1.562,0-2.133-0.185-2.997-0.81"/>
			<path fill="none" stroke="#D0D2D3" stroke-width="0.5" stroke-miterlimit="10" d="M232.858,112.224
				c0.185,0.345,0.879,0.967,4.962,0.772c4.227-0.202,8.839-3.003,9.864-4.005c-0.006-0.275-0.014-0.73-0.022-1.223"/>
			<path fill="none" stroke="#D0D2D3" stroke-width="0.5" stroke-miterlimit="10" d="M250.455,107.266
				c0.537,0.417,3.481,0.132,5.24-0.038c2.579-0.25,5.913-2.964,6.799-3.979c-0.054-2.297-0.371-13.317-0.579-15.291
				c-0.207-1.954-0.971-3.782-5.139-3.922c-4.093-0.14-5.933,0.666-6.663,1.484c-0.671,0.75-0.876,1.64-0.876,1.646"/>
			<path fill="none" stroke="#D0D2D3" stroke-width="0.5" stroke-miterlimit="10" d="M263.907,84.809
				c0.399,0.8,0.653,1.73,0.766,2.786c0.25,2.363,0.603,15.419,0.603,15.99c0,1.851-5.704,6.068-9.389,6.425
				c-1.431,0.139-2.751,0.266-3.903,0.266c-0.598,0-1.147-0.034-1.645-0.118"/>
			<path fill="none" stroke="#D0D2D3" stroke-width="0.5" stroke-miterlimit="10" d="M265.164,101.861
				c0.195,0.202,1.297,0.695,3.167,0.323c1.465-0.293,3.55-2.728,3.979-3.597c0.002-0.042,0.005-0.09,0.008-0.142
				c0.245-5.288-0.26-9.429-1.407-11.873l3.439,1.116c0.909,3.354,0.985,7.409,0.821,10.889l-0.01,0.253
				c0,1.416-3.347,5.571-6.271,6.156c-0.615,0.123-1.21,0.18-1.773,0.18c-0.868,0-1.663-0.133-2.341-0.357"/>
		</g>
		<path fill="none" stroke="#D0D2D3" stroke-width="0.5" stroke-linejoin="bevel" stroke-miterlimit="10" d="M280.835,109.237
			c-8.108,7.218-20.878,15.294-37.988,22.171c-16.504,6.647-29.298,10.768-42.058,10.769l-0.397-0.001l-0.375,0.003
			c-14.81,0.001-40.633-10.331-41.726-10.771c-32.737-13.158-50.001-30.995-47.968-37.99l0.102-0.288
			c4.426-10.772,28.386-15.79,43.182-15.79c4.474,0,7.994,0.438,10.467,1.3c18.396,5.807,30.16,7.877,35.036,7.877l0.227-0.001
			c4.979-0.073,18.524-1.813,37.73-7.875c2.474-0.862,5.994-1.3,10.467-1.3c10.007,0,23.99,2.227,33.502,7.046 M115.869,94.957
			c0.526,3.173,12.557,18.285,44.557,31.146c0.26,0.104,25.878,10.359,39.591,10.358l0.354-0.002l0.417,0.001
			c11.839,0,24.054-3.963,39.925-10.355c32.003-12.863,44.033-27.975,44.56-31.147c-3.343-6.728-22.796-11.9-37.738-11.9
			c-3.742,0-6.802,0.352-8.613,0.992l-0.09,0.03c-18.569,5.863-32.835,8.056-39.41,8.152l-0.311,0.003
			c-6.871,0-20.631-3.049-36.799-8.155l-0.092-0.03c-1.811-0.64-4.868-0.992-8.612-0.992
			C138.666,83.057,119.212,88.229,115.869,94.957z"/>
	</g>
</g>
<path fill="none" stroke="#D0D2D3" stroke-width="0.5" stroke-miterlimit="10" d="M249.914,83.1
	c-0.953,0.283-1.67,1.326-1.936,1.906"/>
</svg>
