<?xml version="1.0" encoding="utf-8"?>
<!-- Generator: Adobe Illustrator 16.0.4, SVG Export Plug-In . SVG Version: 6.00 Build 0)  -->
<!DOCTYPE svg PUBLIC "-//W3C//DTD SVG 1.1//EN" "http://www.w3.org/Graphics/SVG/1.1/DTD/svg11.dtd">
<svg version="1.1" id="Layer_1" xmlns="http://www.w3.org/2000/svg" xmlns:xlink="http://www.w3.org/1999/xlink" x="0px" y="0px"
	 width="60px" height="60px" viewBox="0 0 60 60" enable-background="new 0 0 60 60" xml:space="preserve">
<path id="Mail" fill="none" stroke="#D0D2D3" stroke-width="0.8017" stroke-miterlimit="10" d="M58.649,4.333
	c0.002-0.061,0.002-0.12-0.007-0.178c-0.007-0.044-0.021-0.084-0.033-0.126c-0.02-0.062-0.041-0.12-0.072-0.176
	c-0.011-0.02-0.013-0.042-0.024-0.06c-0.012-0.019-0.032-0.031-0.046-0.049c-0.037-0.051-0.08-0.096-0.127-0.139
	c-0.035-0.031-0.067-0.062-0.107-0.086c-0.019-0.012-0.03-0.03-0.05-0.041c-0.033-0.02-0.072-0.025-0.108-0.041
	c-0.042-0.019-0.083-0.037-0.128-0.049c-0.062-0.016-0.121-0.021-0.185-0.026c-0.042-0.002-0.083-0.009-0.125-0.005
	c-0.077,0.005-0.15,0.025-0.226,0.049c-0.023,0.007-0.049,0.005-0.072,0.016l-0.027,0.011l0,0L1.52,26.42
	c-0.36,0.148-0.594,0.5-0.593,0.889c0.001,0.39,0.239,0.74,0.599,0.885l20.735,8.37v18.511c0,0.431,0.287,0.809,0.702,0.924
	c0.084,0.023,0.171,0.034,0.256,0.034c0.33,0,0.644-0.171,0.821-0.464l8.241-13.722l15.051,8.044
	c0.141,0.075,0.296,0.112,0.449,0.112c0.138,0,0.273-0.028,0.401-0.088c0.271-0.124,0.471-0.37,0.534-0.662l9.922-44.74
	c0.004-0.015,0-0.029,0.003-0.042C58.649,4.424,58.648,4.379,58.649,4.333z M53.074,7.25L23.017,34.803L4.422,27.296L53.074,7.25z
	 M24.177,51.621V37.515l6.413,3.429L24.177,51.621z M47.12,47.606L24.863,35.709L54.027,8.976l2.083-1.91L47.12,47.606z"/>
</svg>
