<?xml version="1.0" encoding="utf-8"?>
<!-- Generator: Adobe Illustrator 16.0.4, SVG Export Plug-In . SVG Version: 6.00 Build 0)  -->
<!DOCTYPE svg PUBLIC "-//W3C//DTD SVG 1.1//EN" "http://www.w3.org/Graphics/SVG/1.1/DTD/svg11.dtd">
<svg version="1.1" id="Layer_1" xmlns="http://www.w3.org/2000/svg" xmlns:xlink="http://www.w3.org/1999/xlink" x="0px" y="0px"
	 width="60px" height="60px" viewBox="0 0 60 60" enable-background="new 0 0 60 60" xml:space="preserve">
<path fill="none" stroke="#D0D2D3" stroke-width="0.449" stroke-miterlimit="10" d="M47.432,55.454H12.998
	c-4.506,0-8.173-3.668-8.173-8.175V26.805h10.951l-0.08,0.414c-0.182,0.943-0.275,1.901-0.275,2.845
	c0,8.158,6.636,14.794,14.792,14.794c8.159,0,14.796-6.637,14.796-14.794c0-0.94-0.092-1.898-0.274-2.845l-0.079-0.414h10.948
	v20.474C55.604,51.786,51.937,55.454,47.432,55.454z M5.97,27.95l0.09,19.33c0,4.124,3.366,6.972,7.028,7.031h34.254
	c3.557-0.06,7.028-2.907,7.028-7.031l0.09-19.33h-8.462c0.141,0.855,0.148,1.471,0.148,2.319c0,8.54-6.752,15.644-15.934,15.644
	c-9.058,0-15.964-7.141-15.964-15.681c0-0.851-0.044-1.429,0.097-2.281H5.97z M30.213,39.73c-5.329,0-9.664-4.336-9.664-9.667
	c0-5.33,4.335-9.666,9.664-9.666c5.33,0,9.666,4.336,9.666,9.666C39.879,35.395,35.543,39.73,30.213,39.73z M30.213,21.968
	c-4.463,0-8.093,3.632-8.093,8.096c0,4.463,3.63,8.096,8.093,8.096c4.464,0,8.096-3.633,8.096-8.096
	C38.309,25.6,34.677,21.968,30.213,21.968z M55.604,21.677H42.399l-0.104-0.147c-2.772-3.919-7.29-6.259-12.081-6.259
	c-4.79,0-9.306,2.34-12.081,6.259l-0.104,0.147H4.825V12.85c0-4.508,3.667-8.174,8.173-8.174h34.434
	c4.505,0,8.172,3.667,8.173,8.174V21.677z M42.937,20.532h11.436V12.85c-0.002-4.124-2.908-7.03-7.03-7.03H13.088
	c-4.123,0-7.028,2.906-7.028,7.03l-0.09,7.682h11.521c2.913-4.015,7.768-6.405,12.723-6.405
	C35.171,14.126,40.024,16.517,42.937,20.532z M49.859,16.437h-4.195c-0.962,0-1.744-0.784-1.744-1.747v-4.193
	c0-0.963,0.782-1.746,1.744-1.746h4.195c0.962,0,1.745,0.783,1.745,1.746v4.193C51.604,15.653,50.821,16.437,49.859,16.437z
	 M45.869,9.753c-0.521,0-0.947,0.425-0.947,0.948v3.785c0,0.523,0.426,0.949,0.947,0.949h3.786c0.521,0,0.947-0.426,0.947-0.949
	v-3.785c0-0.522-0.426-0.948-0.947-0.948H45.869z"/>
</svg>
