<?xml version="1.0" encoding="utf-8"?>
<!-- Generator: Adobe Illustrator 16.0.4, SVG Export Plug-In . SVG Version: 6.00 Build 0)  -->
<!DOCTYPE svg PUBLIC "-//W3C//DTD SVG 1.1//EN" "http://www.w3.org/Graphics/SVG/1.1/DTD/svg11.dtd">
<svg version="1.1" id="Layer_1" xmlns="http://www.w3.org/2000/svg" xmlns:xlink="http://www.w3.org/1999/xlink" x="0px" y="0px"
	 width="60px" height="60px" viewBox="0 0 60 60" enable-background="new 0 0 60 60" xml:space="preserve">
<path fill="none" stroke="#D0D2D3" stroke-width="0.5" stroke-miterlimit="10" d="M49.389,58.34H11.041
	c-5.019,0-9.102-4.084-9.102-9.104V26.435h12.195l-0.089,0.46c-0.203,1.051-0.306,2.117-0.306,3.169
	c0,9.085,7.39,16.476,16.474,16.476c9.086,0,16.478-7.391,16.478-16.476c0-1.047-0.103-2.114-0.306-3.169l-0.088-0.46h12.192v22.802
	C58.489,54.256,54.406,58.34,49.389,58.34z M3.214,27.709l0.1,21.527c0,4.593,3.749,7.764,7.827,7.83h38.148
	c3.961-0.066,7.827-3.237,7.827-7.83l0.1-21.527h-9.424c0.157,0.953,0.166,1.638,0.166,2.582c0,9.511-7.521,17.422-17.745,17.422
	c-10.088,0-17.779-7.952-17.779-17.464c0-0.947-0.05-1.591,0.108-2.541H3.214z M30.213,40.829c-5.935,0-10.762-4.829-10.762-10.765
	s4.828-10.765,10.762-10.765c5.936,0,10.765,4.829,10.765,10.765S36.148,40.829,30.213,40.829z M30.213,21.047
	c-4.97,0-9.014,4.045-9.014,9.017c0,4.971,4.043,9.016,9.014,9.016c4.971,0,9.016-4.045,9.016-9.016
	C39.229,25.092,35.184,21.047,30.213,21.047z M58.491,20.723H43.784l-0.116-0.164c-3.088-4.364-8.118-6.97-13.454-6.97
	c-5.334,0-10.364,2.606-13.454,6.97l-0.116,0.164H1.939v-9.83c0-5.02,4.083-9.104,9.102-9.104h38.348
	c5.017,0,9.101,4.083,9.103,9.104V20.723z M44.383,19.448h12.735v-8.555c-0.002-4.593-3.239-7.829-7.829-7.829H11.141
	c-4.592,0-7.827,3.236-7.827,7.829l-0.1,8.555h12.831c3.244-4.471,8.65-7.134,14.169-7.134
	C35.734,12.314,41.14,14.977,44.383,19.448z M52.093,14.887H47.42c-1.071,0-1.942-0.873-1.942-1.945v-4.67
	c0-1.072,0.871-1.944,1.942-1.944h4.673c1.071,0,1.943,0.872,1.943,1.944v4.67C54.036,14.015,53.164,14.887,52.093,14.887z
	 M47.648,7.444c-0.581,0-1.055,0.474-1.055,1.056v4.215c0,0.583,0.474,1.057,1.055,1.057h4.217c0.581,0,1.055-0.474,1.055-1.057V8.5
	c0-0.582-0.474-1.056-1.055-1.056H47.648z"/>
</svg>
