<?xml version="1.0" encoding="utf-8"?>
<!-- Generator: Adobe Illustrator 16.0.4, SVG Export Plug-In . SVG Version: 6.00 Build 0)  -->
<!DOCTYPE svg PUBLIC "-//W3C//DTD SVG 1.1//EN" "http://www.w3.org/Graphics/SVG/1.1/DTD/svg11.dtd">
<svg version="1.1" id="Layer_1" xmlns="http://www.w3.org/2000/svg" xmlns:xlink="http://www.w3.org/1999/xlink" x="0px" y="0px"
	 width="60px" height="60px" viewBox="0 0 60 60" enable-background="new 0 0 60 60" xml:space="preserve">
<path fill="none" stroke="#D0D2D3" stroke-width="0.5" stroke-miterlimit="10" d="M49.389,58.34H11.041
	c-5.019,0-9.102-4.084-9.102-9.104V26.435h12.195l-0.089,0.46c-0.203,1.051-0.306,2.117-0.306,3.169
	c0,9.085,7.39,16.476,16.474,16.476c9.086,0,16.478-7.391,16.478-16.476c0-1.047-0.103-2.114-0.306-3.169l-0.088-0.46h12.192v22.802
	C58.489,54.256,54.406,58.34,49.389,58.34z M2.914,27.409l0.1,21.827c0,4.593,3.536,8.129,8.127,8.129h38.148
	c4.591,0,8.126-3.536,8.126-8.129l0.1-21.827H47.428c0.157,0.953,0.237,1.71,0.237,2.655c0,9.512-7.939,17.451-17.452,17.451
	c-9.511,0-17.448-7.938-17.448-17.451c0-0.947,0.08-1.706,0.237-2.655H2.914z M30.213,40.829c-5.935,0-10.762-4.829-10.762-10.765
	s4.828-10.765,10.762-10.765c5.936,0,10.765,4.829,10.765,10.765S36.148,40.829,30.213,40.829z M30.213,20.573
	c-5.232,0-9.488,4.258-9.488,9.491c0,5.233,4.256,9.491,9.488,9.491c5.232,0,9.49-4.258,9.49-9.491
	C39.703,24.831,35.445,20.573,30.213,20.573z M58.491,20.723H43.784l-0.116-0.164c-3.088-4.364-8.118-6.97-13.454-6.97
	c-5.334,0-10.364,2.606-13.454,6.97l-0.116,0.164H1.939v-9.83c0-5.02,4.083-9.104,9.102-9.104h38.348
	c5.017,0,9.101,4.083,9.103,9.104V20.723z M44.184,19.749h13.333l-0.1-8.855c-0.002-4.593-3.538-8.129-8.128-8.129H11.141
	c-4.592,0-8.127,3.536-8.127,8.129l-0.1,8.855h13.332c3.244-4.471,8.45-7.134,13.969-7.134
	C35.734,12.615,40.94,15.277,44.184,19.749z M52.093,14.887H47.42c-1.071,0-1.942-0.873-1.942-1.945v-4.67
	c0-1.072,0.871-1.944,1.942-1.944h4.673c1.071,0,1.943,0.872,1.943,1.944v4.67C54.036,14.015,53.164,14.887,52.093,14.887z
	 M47.537,7.277c-0.611,0-1.109,0.499-1.109,1.111v4.437c0,0.613,0.498,1.112,1.109,1.112h4.439c0.611,0,1.109-0.499,1.109-1.112
	V8.389c0-0.613-0.498-1.111-1.109-1.111H47.537z"/>
</svg>
