<?xml version="1.0" encoding="utf-8"?>
<!-- Generator: Adobe Illustrator 16.0.4, SVG Export Plug-In . SVG Version: 6.00 Build 0)  -->
<!DOCTYPE svg PUBLIC "-//W3C//DTD SVG 1.1//EN" "http://www.w3.org/Graphics/SVG/1.1/DTD/svg11.dtd">
<svg version="1.1" id="Layer_1" xmlns="http://www.w3.org/2000/svg" xmlns:xlink="http://www.w3.org/1999/xlink" x="0px" y="0px"
	 width="60px" height="60px" viewBox="0 0 60 60" enable-background="new 0 0 60 60" xml:space="preserve">
<path fill="none" stroke="#D0D2D3" stroke-width="0.5" stroke-miterlimit="10" d="M51.618,43.852c-0.205,0-20.73-0.01-20.764-0.012
	c-0.608-0.06-1.08-0.562-1.088-1.146V19.717c0.008-0.576,0.255-0.881,0.911-1.128c1.547-0.577,3.238-0.882,4.893-0.882
	c6.913,0,12.607,4.928,13.404,11.526c0.853-0.297,1.74-0.448,2.644-0.448c4.289,0,7.778,3.379,7.778,7.534
	S55.907,43.852,51.618,43.852z M31.604,42.631c0.725,0,19.486,0.011,19.662,0.011c3.768,0,6.834-2.962,6.834-6.601
	s-3.066-6.098-6.834-6.098c-0.908,0-1.799,0.172-2.646,0.513l-0.546,0.14l-0.034-0.873c-0.553-6.059-5.72-10.805-12.018-10.805
	c-1.506,0-3.047,0.277-4.453,0.802c-0.477,0.18-0.5,0.313-0.504,0.554v21.82c0.004,0.271,0.231,0.51,0.518,0.537
	C31.584,42.631,31.591,42.631,31.604,42.631z M25.683,43.834c-0.735,0-1.32-0.451-1.333-1.027c-0.391-5.998-0.391-6.003-0.391-6.017
	l0.391-14.953c0.013-0.577,0.598-1.031,1.333-1.031c0.734,0,1.319,0.454,1.331,1.033l0.438,14.948l-0.439,6.035
	C27.002,43.383,26.417,43.834,25.683,43.834z M25.684,21.94c-0.412,0-0.504,0.229-0.508,0.435l-0.372,14.199
	c0.004,0.059,0.371,5.684,0.371,5.684c0.004,0.217,0.097,0.443,0.508,0.443s0.502-0.227,0.506-0.43l0.417-5.721L26.19,22.377
	C26.187,22.169,26.096,21.94,25.684,21.94z M19.867,43.811c-0.669,0-1.206-0.405-1.222-0.924l-0.494-6.07l0.492-13.075
	c0.018-0.527,0.543-0.925,1.223-0.925c0.677,0,1.203,0.398,1.223,0.925l0.553,13.039l-0.554,6.125
	C21.071,43.415,20.545,43.811,19.867,43.811z M19.868,23.899c-0.355,0-0.399,0.177-0.405,0.341l-0.467,12.389l0.469,5.748
	c0.005,0.174,0.055,0.352,0.405,0.352c0.354,0,0.397-0.175,0.404-0.338l0.526-5.797l-0.526-12.351
	C20.266,24.076,20.222,23.899,19.868,23.899z M8.239,43.807L8.239,43.807H8.232c-0.529,0-0.951-0.307-0.981-0.713l-0.714-6.272
	l0.714-9.778c0.029-0.406,0.452-0.712,0.982-0.712c0.523,0,0.946,0.304,0.983,0.707l0.807,9.726l-0.808,6.346
	C9.178,43.503,8.758,43.807,8.239,43.807z M8.236,27.322c-0.241,0-0.174,0.112-0.177,0.159L7.38,36.719l0.628,5.918
	c0.004,0.057-0.024,0.584,0.226,0.584h0.005l0,0c0.244,0,0.22-0.522,0.226-0.58l0.717-5.979l-0.768-9.178
	C8.41,27.428,8.462,27.322,8.236,27.322z M14.051,43.804c-0.606,0-1.083-0.35-1.11-0.814l-0.597-6.17l0.597-12.986
	c0.026-0.47,0.503-0.822,1.11-0.822c0.604,0,1.08,0.352,1.109,0.817l0.673,12.946l-0.674,6.228
	C15.131,43.454,14.654,43.804,14.051,43.804z M14.052,24.089c-0.299,0-0.292,0.146-0.297,0.252l-0.568,12.293l0.567,5.833
	c0.007,0.114-0.001,0.26,0.298,0.26c0.298,0,0.291-0.147,0.297-0.253l0.641-5.883L14.35,24.34
	C14.342,24.223,14.328,24.089,14.052,24.089z M2.415,41.329c-0.463,0-0.795-0.182-0.846-0.463l-0.849-4.117l0.85-4.261
	c0.05-0.276,0.382-0.458,0.845-0.458c0.457,0,0.788,0.179,0.844,0.457l0.966,4.262l-0.968,4.133
	C3.203,41.15,2.872,41.329,2.415,41.329z M2.25,40.496c0.081,0.033,0.249,0.039,0.337-0.002l0.878-3.75l-0.878-3.879
	c-0.088-0.04-0.248-0.04-0.336-0.002l-0.774,3.881L2.25,40.496z"/>
</svg>
