<?xml version="1.0" encoding="utf-8"?>
<!-- Generator: Adobe Illustrator 16.0.4, SVG Export Plug-In . SVG Version: 6.00 Build 0)  -->
<!DOCTYPE svg PUBLIC "-//W3C//DTD SVG 1.1//EN" "http://www.w3.org/Graphics/SVG/1.1/DTD/svg11.dtd">
<svg version="1.1" id="Layer_1" xmlns="http://www.w3.org/2000/svg" xmlns:xlink="http://www.w3.org/1999/xlink" x="0px" y="0px"
	 width="80px" height="60px" viewBox="-10 0 80 60" enable-background="new -10 0 80 60" xml:space="preserve">
<path fill="none" stroke="#D0D2D3" stroke-width="0.6397" stroke-miterlimit="10" d="M57.644,47.505
	c-0.263,0-26.524-0.013-26.566-0.015c-0.779-0.076-1.382-0.72-1.392-1.467V16.625c0.01-0.737,0.326-1.127,1.166-1.443
	c1.979-0.739,4.144-1.128,6.26-1.128c8.846,0,16.131,6.306,17.15,14.747c1.091-0.38,2.227-0.573,3.383-0.573
	c5.487,0,9.952,4.323,9.952,9.639S63.131,47.505,57.644,47.505z M32.035,45.943c0.927,0,24.933,0.014,25.157,0.014
	c4.82,0,8.744-3.79,8.744-8.445s-3.924-7.803-8.744-7.803c-1.162,0-2.302,0.221-3.386,0.657l-0.699,0.179l-0.043-1.118
	c-0.708-7.752-7.318-13.824-15.377-13.824c-1.927,0-3.898,0.355-5.697,1.026c-0.609,0.23-0.64,0.401-0.645,0.708v27.918
	c0.005,0.348,0.296,0.652,0.662,0.688C32.011,45.943,32.019,45.943,32.035,45.943z M24.46,47.482c-0.94,0-1.689-0.577-1.705-1.314
	c-0.5-7.674-0.5-7.681-0.5-7.698l0.5-19.131c0.016-0.738,0.765-1.319,1.705-1.319c0.939,0,1.688,0.581,1.702,1.321l0.561,19.125
	l-0.562,7.722C26.148,46.905,25.4,47.482,24.46,47.482z M24.461,19.47c-0.526,0-0.645,0.293-0.649,0.557l-0.476,18.167
	c0.005,0.075,0.475,7.272,0.475,7.272c0.006,0.277,0.124,0.567,0.65,0.567c0.527,0,0.643-0.29,0.648-0.55l0.534-7.319l-0.534-18.135
	C25.104,19.763,24.988,19.47,24.461,19.47z M17.019,47.452c-0.856,0-1.543-0.519-1.564-1.182l-0.631-7.767l0.629-16.729
	c0.022-0.674,0.695-1.184,1.565-1.184c0.867,0,1.539,0.509,1.564,1.184l0.708,16.682l-0.709,7.837
	C18.559,46.946,17.887,47.452,17.019,47.452z M17.02,21.976c-0.454,0-0.511,0.226-0.519,0.437l-0.598,15.851l0.6,7.354
	c0.007,0.223,0.071,0.45,0.518,0.45c0.453,0,0.508-0.224,0.517-0.433l0.673-7.417l-0.673-15.803
	C17.529,22.203,17.473,21.976,17.02,21.976z M2.142,47.447L2.142,47.447H2.133c-0.677,0-1.217-0.393-1.255-0.912l-0.913-8.025
	L0.877,26c0.038-0.519,0.578-0.911,1.257-0.911c0.669,0,1.21,0.389,1.257,0.904l1.032,12.444l-1.033,8.119
	C3.343,47.059,2.805,47.447,2.142,47.447z M2.138,26.355c-0.309,0-0.223,0.143-0.227,0.204l-0.869,11.82l0.804,7.571
	c0.006,0.073-0.031,0.748,0.289,0.748h0.007l0,0c0.312,0,0.282-0.669,0.289-0.742l0.917-7.649L2.366,26.563
	C2.359,26.492,2.426,26.355,2.138,26.355z M9.577,47.443c-0.776,0-1.386-0.447-1.42-1.042l-0.764-7.894l0.764-16.615
	c0.034-0.601,0.644-1.052,1.42-1.052c0.772,0,1.382,0.45,1.419,1.046l0.861,16.564l-0.863,7.968
	C10.959,46.996,10.349,47.443,9.577,47.443z M9.579,22.22c-0.383,0-0.373,0.188-0.38,0.322L8.471,38.271l0.726,7.463
	c0.009,0.146-0.001,0.332,0.382,0.332c0.381,0,0.372-0.188,0.38-0.323l0.82-7.527L9.959,22.54C9.95,22.39,9.932,22.22,9.579,22.22z
	 M-5.311,44.277c-0.592,0-1.017-0.232-1.082-0.592l-1.086-5.269l1.087-5.451c0.063-0.354,0.488-0.586,1.081-0.586
	c0.584,0,1.008,0.229,1.08,0.585l1.236,5.452l-1.239,5.288C-4.302,44.049-4.726,44.277-5.311,44.277z M-5.521,43.212
	c0.103,0.042,0.318,0.05,0.432-0.003l1.123-4.798l-1.124-4.963c-0.112-0.051-0.316-0.051-0.43-0.003l-0.99,4.966L-5.521,43.212z"/>
</svg>
