<?xml version="1.0" encoding="utf-8"?>
<!-- Generator: Adobe Illustrator 16.0.4, SVG Export Plug-In . SVG Version: 6.00 Build 0)  -->
<!DOCTYPE svg PUBLIC "-//W3C//DTD SVG 1.1//EN" "http://www.w3.org/Graphics/SVG/1.1/DTD/svg11.dtd">
<svg version="1.1" id="Layer_1" xmlns="http://www.w3.org/2000/svg" xmlns:xlink="http://www.w3.org/1999/xlink" x="0px" y="0px"
	 width="60px" height="60px" viewBox="0 0 60 60" enable-background="new 0 0 60 60" xml:space="preserve">
<path id="Soundcloud" fill="none" stroke="#D0D2D3" stroke-width="0.5867" stroke-miterlimit="10" d="M2.971,40.815l0.953-4.067
	l-0.953-4.203c-0.025-0.126-0.265-0.222-0.556-0.222c-0.295,0-0.534,0.096-0.557,0.223L1.02,36.748l0.838,4.067
	c0.023,0.126,0.262,0.221,0.557,0.221C2.706,41.036,2.946,40.941,2.971,40.815z M8.925,43.072l0.806-6.284l-0.806-9.723
	c-0.023-0.249-0.326-0.44-0.691-0.44c-0.369,0-0.672,0.191-0.69,0.44l-0.715,9.723l0.715,6.284c0.018,0.247,0.321,0.442,0.69,0.442
	C8.599,43.515,8.901,43.322,8.925,43.072z M14.867,42.971l0.673-6.18l-0.673-12.944c-0.019-0.306-0.377-0.542-0.816-0.542
	c-0.442,0-0.8,0.237-0.817,0.542l-0.598,12.944l0.598,6.181c0.017,0.302,0.375,0.539,0.817,0.539
	C14.49,43.511,14.848,43.275,14.867,42.971z M20.796,42.879l0.553-6.086l-0.553-13.04c-0.014-0.361-0.422-0.643-0.93-0.643
	c-0.51,0-0.918,0.282-0.93,0.643l-0.492,13.04l0.494,6.085c0.011,0.357,0.418,0.64,0.929,0.64
	C20.374,43.518,20.783,43.24,20.796,42.879z M26.72,42.801l0.438-6.005L26.72,21.845c-0.008-0.411-0.475-0.745-1.037-0.745
	c-0.565,0-1.03,0.336-1.039,0.745L24.253,36.79c0,0.009,0.391,6.011,0.391,6.011c0.009,0.408,0.474,0.74,1.039,0.74
	C26.245,43.541,26.712,43.211,26.72,42.801z M30.869,43.547c0.019,0.001,20.615,0.012,20.749,0.012c4.136,0,7.485-3.244,7.485-7.24
	c0-4-3.35-7.241-7.485-7.241c-1.026,0-2.003,0.203-2.895,0.562C48.128,23.118,42.469,18,35.57,18c-1.689,0-3.335,0.321-4.789,0.863
	c-0.565,0.213-0.715,0.431-0.721,0.854V42.69C30.066,43.132,30.423,43.503,30.869,43.547z"/>
</svg>
