<?xml version="1.0" encoding="utf-8"?>
<!-- Generator: Adobe Illustrator 17.1.0, SVG Export Plug-In . SVG Version: 6.00 Build 0)  -->
<!DOCTYPE svg PUBLIC "-//W3C//DTD SVG 1.1//EN" "http://www.w3.org/Graphics/SVG/1.1/DTD/svg11.dtd">
<svg version="1.1" id="Layer_1" xmlns="http://www.w3.org/2000/svg" xmlns:xlink="http://www.w3.org/1999/xlink" x="0px" y="0px"
	 viewBox="39.5 34.6 80 90.9" enable-background="new 39.5 34.6 80 90.9" xml:space="preserve">
<g>
	<polygon fill="#D0D2D3" points="114.4,34.6 114.4,83.6 60.3,34.6 39.5,34.6 119.5,111 119.5,34.6 	"/>
	<path fill="#D0D2D3" d="M39.5,125.5c0-2.8,2.3-5,5-5h42.6c3.3,0,6-2.7,6-6c0-1.5-0.8-3-1.6-4.1L43,64.4c-2.1-1.9-3.4-4.7-3.4-7.8
		V40.9l78.1,74.5c0.9,0.9,1.7,2.6,1.7,4.1c0,3.3-2.7,6-6,6H99.2h0L39.5,125.5L39.5,125.5z"/>
</g>
</svg>
