<?xml version="1.0" encoding="utf-8"?>
<!-- Generator: Adobe Illustrator 18.0.0, SVG Export Plug-In . SVG Version: 6.00 Build 0)  -->
<!DOCTYPE svg PUBLIC "-//W3C//DTD SVG 1.1//EN" "http://www.w3.org/Graphics/SVG/1.1/DTD/svg11.dtd">
<svg version="1.1" id="Layer_1" xmlns="http://www.w3.org/2000/svg" xmlns:xlink="http://www.w3.org/1999/xlink" x="0px" y="0px"
	 viewBox="0 0 59.9 101" enable-background="new 0 0 59.9 101" xml:space="preserve">
<path display="none" fill="#FFFFFF" d="M-22,190c0-98.3,0-196.7,0-295c98,0,196,0,294,0c0,98.3,0,196.7,0,295C174,190,76,190-22,190
	z M256.8,51c-0.7,0.6-1.1,1-1.5,1.4c-24.5,21.4-48.9,42.8-73.4,64.2c-0.5,0.4-1,0.9-1.5,1.4c-1.1,1.3-1.2,2.8-0.1,4.1
	c1.1,1.3,2.6,1.4,4,0.4c1.1-0.8,2.2-1.8,3.2-2.8c10.2-8.9,20.3-17.8,30.5-26.6c14.9-13,29.7-26,44.6-39c2.5-2.2,2.5-3.8,0-6
	c-2.2-1.9-4.4-3.8-6.6-5.8c-23.5-20.6-47-41.1-70.5-61.7c-2.2-1.9-3.9-2-5.2-0.5c-1.3,1.5-0.9,3.2,1.3,5.1
	c17.8,15.6,35.6,31.2,53.4,46.7C242.2,38.2,249.4,44.5,256.8,51z M-4.5,50.9c0.8-0.7,1.4-1.1,2-1.6C19.3,30.3,41.1,11.2,62.9-7.9
	c2.8-2.5,5.6-4.9,8.5-7.4c1.5-1.3,2.2-2.9,0.7-4.6c-1.4-1.7-3-1.4-4.6-0.1c-0.3,0.3-0.6,0.5-0.9,0.8c-25.5,22.3-51,44.6-76.6,67
	c-2.9,2.5-2.8,3.9,0.1,6.5c6.3,5.5,12.5,11,18.8,16.5c19.2,16.8,38.5,33.7,57.7,50.5c2.4,2.1,4,2.3,5.4,0.8c1.5-1.6,1-3.2-1.5-5.4
	C54.2,102.3,37.8,88,21.5,73.7C13,66.2,4.4,58.8-4.5,50.9z"/>
<path fill="#181818" d="M256.8,51c-7.4-6.5-14.6-12.8-21.8-19.1c-17.8-15.6-35.6-31.2-53.4-46.7c-2.1-1.9-2.6-3.6-1.3-5.1
	c1.3-1.5,3-1.4,5.2,0.5c23.5,20.6,47,41.1,70.5,61.7c2.2,1.9,4.4,3.8,6.6,5.8c2.5,2.2,2.5,3.8,0,6c-14.8,13-29.7,26-44.6,39
	c-10.2,8.9-20.3,17.8-30.5,26.6c-1.1,0.9-2.1,1.9-3.2,2.8c-1.4,1-2.9,0.9-4-0.4c-1.2-1.3-1.1-2.7,0.1-4.1c0.4-0.5,1-0.9,1.5-1.4
	c24.5-21.4,48.9-42.8,73.4-64.2C255.7,52,256.1,51.6,256.8,51z"/>
<path fill="#FFFFFF" d="M13.5,51c4.3-3.8,8.5-7.4,12.6-11C34,33,42,26,49.9,19.1c1.2-1.1,1.4-1.8,0.7-2.6c-0.7-0.7-1.5-0.6-2.6,0.4
	C38.7,25,29.3,33.2,20,41.4c-3,2.7-6.1,5.3-9.1,8c-1.4,1.2-1.4,1.9,0,3.1C23.2,63.4,35.6,74.2,48,85.1c0.2,0.1,0.3,0.3,0.5,0.4
	c0.8,0.6,1.6,0.8,2.2-0.1c0.7-0.8,0.4-1.6-0.4-2.2c-1.4-1.2-2.7-2.4-4.1-3.6C35.6,70.3,25,61,14.4,51.8C14.1,51.5,13.9,51.3,13.5,51
	z"/>
</svg>
