<?xml version="1.0" encoding="utf-8"?>
<!-- Generator: Adobe Illustrator 17.1.0, SVG Export Plug-In . SVG Version: 6.00 Build 0)  -->
<!DOCTYPE svg PUBLIC "-//W3C//DTD SVG 1.1//EN" "http://www.w3.org/Graphics/SVG/1.1/DTD/svg11.dtd">
<svg version="1.1" id="Layer_1" xmlns="http://www.w3.org/2000/svg" xmlns:xlink="http://www.w3.org/1999/xlink" x="0px" y="0px"
	 viewBox="64.3 38.8 31.7 81.5" enable-background="new 64.3 38.8 31.7 81.5" xml:space="preserve">
<path id="companies" fill="none" stroke="#D0D2D3" stroke-width="0.5" stroke-miterlimit="10" d="M95.3,104.2l-1.8-14
	c0.2-0.6,0.1-1.2-0.2-1.7l-4.5-36.2l3.8-10c0.2-0.6,0.1-1.3-0.2-1.8c-0.4-0.5-1-0.8-1.6-0.8h-21c-0.6,0-1.2,0.3-1.6,0.8
	c-0.4,0.5-0.5,1.2-0.2,1.8l3.8,10l-6.5,52c-0.1,0.6,0.1,1.2,0.6,1.6L78.8,119c0.4,0.4,0.9,0.6,1.4,0.6c0.5,0,1-0.2,1.4-0.6
	l13.1-13.1C95.2,105.4,95.4,104.8,95.3,104.2z M74.2,63.5l12.8,9c0.1,0.1,0.3,0.1,0.4,0.2L89,85.2L72.9,74L74.2,63.5z M85,54l1.6,13
	l-11.8-8.4l0.6-4.6L85,54L85,54z M72.3,78.9L89.7,91l1.6,12.4L71.1,89c0,0,0,0,0,0L72.3,78.9z M87.9,43.5L85.4,50H75l-2.5-6.6H87.9z
	 M80.2,114.8l-11-11l1.2-9.9l17.9,12.8L80.2,114.8z"/>
</svg>
