<?xml version="1.0" encoding="utf-8"?>
<!-- Generator: Adobe Illustrator 17.1.0, SVG Export Plug-In . SVG Version: 6.00 Build 0)  -->
<!DOCTYPE svg PUBLIC "-//W3C//DTD SVG 1.1//EN" "http://www.w3.org/Graphics/SVG/1.1/DTD/svg11.dtd">
<svg version="1.1" id="Layer_1" xmlns="http://www.w3.org/2000/svg" xmlns:xlink="http://www.w3.org/1999/xlink" x="0px" y="0px"
	 viewBox="44.1 39.4 71.8 81.3" enable-background="new 44.1 39.4 71.8 81.3" xml:space="preserve">
<path id="connect" fill="none" stroke="#D0D2D3" stroke-width="0.5" stroke-miterlimit="10" d="M115.4,59.3c-0.4-0.5-1-0.8-1.7-0.8
	h-12.6l4.3-16c0.3-1.1-0.4-2.3-1.5-2.6c-1.1-0.3-2.3,0.4-2.6,1.5l-4.6,17.1H46.7c-0.6,0-1.3,0.3-1.7,0.8c-0.4,0.5-0.6,1.2-0.4,1.8
	L57,118.5c0.2,1,1.1,1.7,2.1,1.7h42.4c1,0,1.9-0.7,2.1-1.7l12.4-57.4C116,60.5,115.9,59.8,115.4,59.3z M95.7,62.8l-3.1,11.6
	c-0.3,0-0.5-0.1-0.8-0.1c-4,0-7.5,2.2-9.4,5.4H53l-3.6-16.9L95.7,62.8L95.7,62.8z M98.4,86.2c-0.5,3.6-3.9,6.2-7.6,5.7
	c-1.8-0.2-3.3-1.2-4.4-2.6c-1.1-1.4-1.5-3.2-1.3-5c0-0.1,0.1-0.2,0.1-0.3h13.1C98.5,84.7,98.5,85.4,98.4,86.2z M88,79.7
	c1.1-0.7,2.4-1.2,3.7-1.2c0.3,0,0.6,0,0.9,0.1c1.1,0.1,2,0.6,2.8,1.1L88,79.7L88,79.7z M99.7,115.9h-39L53.9,84h27
	c-0.3,2.8,0.4,5.6,2.1,7.9c1.1,1.4,2.5,2.6,4.1,3.3l-2.1,8c-0.3,1.1,0.4,2.3,1.5,2.6c0.2,0,0.4,0.1,0.5,0.1c0.9,0,1.8-0.6,2.1-1.6
	l2.2-8.1c0.2,0,0.4,0,0.6,0c5.4,0,10.1-4.1,10.8-9.4c0.1-0.9,0.1-1.9,0-2.8h3.9L99.7,115.9z M107.5,79.7h-6.3
	c-1.1-1.8-2.6-3.3-4.5-4.3l3.4-12.7h11.1L107.5,79.7z"/>
</svg>
